<?xml version="1.0" standalone="no"?>
<!DOCTYPE svg PUBLIC "-//W3C//DTD SVG 20010904//EN"
 "http://www.w3.org/TR/2001/REC-SVG-20010904/DTD/svg10.dtd">
<svg version="1.0" xmlns="http://www.w3.org/2000/svg"
 width="97.000000pt" height="97.000000pt" viewBox="0 0 97.000000 97.000000"
 preserveAspectRatio="xMidYMid meet">

<g transform="translate(0.000000,97.000000) scale(0.100000,-0.100000)"
fill="#000000" stroke="none">
<path d="M405 930 c-96 -19 -224 -90 -296 -165 -31 -32 -39 -61 -14 -51 19 7
19 2 -1 -36 -40 -77 -59 -221 -35 -266 6 -9 17 -39 26 -67 29 -95 120 -212
195 -250 141 -72 230 -71 377 4 55 28 106 51 114 51 11 0 11 2 2 8 -9 6 -3 18
23 43 50 48 104 182 104 259 0 19 4 42 10 50 7 12 11 12 28 -3 18 -16 20 -16
26 -2 10 28 -22 156 -51 199 -42 65 -87 116 -101 116 -9 0 -7 -8 7 -27 12 -14
19 -28 16 -31 -3 -3 -11 1 -18 10 -15 19 -88 68 -147 99 -31 15 -40 24 -28 27
9 2 27 -2 39 -8 15 -8 19 -9 15 -1 -4 6 -1 11 6 11 7 1 1 7 -13 15 -31 17
-223 27 -284 15z m80 -37 c-80 -19 -144 -28 -136 -20 13 13 69 25 116 25 22 0
31 -2 20 -5z m151 -62 c55 -25 173 -137 195 -185 13 -29 15 -46 8 -64 -11 -30
-3 -62 16 -62 21 0 27 -33 16 -99 -15 -90 -45 -149 -114 -219 -82 -84 -118
-102 -223 -109 -93 -7 -181 11 -264 52 -61 31 -83 57 -126 150 -40 84 -42 94
-44 190 -3 161 121 314 282 349 95 20 205 19 254 -3z m-447 -68 c-18 -21 -37
-42 -41 -47 -5 -6 -8 -6 -8 1 0 14 64 83 76 83 4 0 -8 -17 -27 -37z m651 -46
c0 -6 -9 -2 -20 8 -11 10 -20 23 -20 28 0 6 9 2 20 -8 11 -10 20 -23 20 -28z
m68 -122 c-3 -3 -9 2 -12 12 -6 14 -5 15 5 6 7 -7 10 -15 7 -18z"/>
<path d="M161 479 c-12 -41 -7 -65 8 -40 6 10 10 8 16 -6 7 -16 9 -15 15 7 15
48 11 80 -8 80 -13 0 -23 -12 -31 -41z m26 -11 c-3 -7 -5 -2 -5 12 0 14 2 19
5 13 2 -7 2 -19 0 -25z"/>
<path d="M226 508 c-15 -47 -15 -78 0 -78 8 0 13 4 10 8 -3 4 -1 25 4 45 5 22
4 37 -1 37 -5 0 -11 -6 -13 -12z"/>
<path d="M265 493 c-4 -16 -8 -36 -10 -45 -4 -21 13 -35 19 -16 2 7 7 30 10
51 6 42 -11 51 -19 10z"/>
<path d="M303 475 c-6 -25 -6 -48 -2 -51 5 -3 9 -1 9 5 0 5 8 17 17 27 17 16
18 16 23 -6 8 -32 25 -35 49 -11 27 27 29 81 2 81 -10 0 -26 -10 -34 -22 l-16
-23 0 23 c-1 14 -7 22 -19 22 -14 0 -21 -12 -29 -45z m37 16 c0 -6 -4 -13 -10
-16 -5 -3 -10 1 -10 9 0 9 5 16 10 16 6 0 10 -4 10 -9z m61 -23 c-4 -12 -13
-24 -19 -26 -15 -5 -15 31 0 46 17 17 28 5 19 -20z"/>
<path d="M437 513 c-8 -14 -19 -93 -13 -93 4 0 11 10 16 23 7 17 9 18 9 5 1
-10 6 -18 12 -18 6 0 9 9 6 20 -3 11 -1 23 4 26 18 10 10 44 -10 44 -11 0 -22
-3 -24 -7z m33 -17 c0 -3 -4 -8 -10 -11 -5 -3 -10 -1 -10 4 0 6 5 11 10 11 6
0 10 -2 10 -4z"/>
<path d="M500 495 c-19 -50 -24 -78 -11 -71 6 4 11 15 12 24 1 10 4 7 9 -8 l7
-25 11 25 c10 24 11 24 11 3 2 -57 30 4 31 65 0 21 -20 13 -30 -13 -5 -14 -11
-25 -13 -25 -2 0 -2 11 1 25 6 33 -16 33 -28 0z"/>
<path d="M584 485 c-19 -46 -19 -72 0 -56 11 9 15 9 19 -1 7 -21 15 -6 22 45
6 40 5 47 -9 47 -10 0 -23 -15 -32 -35z m26 -10 c0 -8 -4 -15 -10 -15 -5 0 -7
7 -4 15 4 8 8 15 10 15 2 0 4 -7 4 -15z"/>
<path d="M714 512 c-16 -11 -34 -48 -34 -71 0 -30 36 -27 56 3 25 40 9 89 -22
68z m14 -44 c-4 -27 -28 -36 -28 -10 0 20 8 32 22 32 5 0 8 -10 6 -22z"/>
<path d="M767 513 c-3 -5 -8 -28 -11 -53 -6 -39 -5 -43 7 -28 12 15 14 15 25
0 11 -15 12 -14 8 7 -3 14 0 31 6 38 5 7 8 20 4 28 -6 16 -32 21 -39 8z m33
-17 c0 -3 -4 -8 -10 -11 -5 -3 -10 -1 -10 4 0 6 5 11 10 11 6 0 10 -2 10 -4z"/>
<path d="M640 463 c0 -25 3 -43 7 -40 13 14 42 87 33 87 -4 0 -11 -6 -13 -12
-4 -10 -6 -10 -6 0 -1 6 -5 12 -11 12 -5 0 -10 -21 -10 -47z"/>
</g>
</svg>
